<?xml version="1.0" encoding="UTF-8" standalone="no"?>
<svg height="1024" version="1.1" viewBox="0 0 1024 1024" width="1024" xmlns="http://www.w3.org/2000/svg">
  <path d="M519.13,180.79c27.04,0,54.42,5.88,79.08,16.94c40.83,18.31,74.18,52.87,90.69,94.6c9.45,23.89,9.73,51.4,9.51,76.72c-0.13,14.61-0.82,29.2-1.66,43.78c-0.43,7.33-0.89,14.65-1.35,21.98c-0.25,4.02-0.5,8.04-0.74,12.06c-0.15,2.59-1.05,6.09-0.48,8.64c1.25,5.61,10.15,9.35,15.06,10.9c12.97,4.08,26.53,1.14,39.01-3.31c7.44-2.65,14.14-7.09,22.3-6.34c5.91,0.54,12.76,3.18,16.97,7.46c4.42,4.5,3.49,8.94-0.31,13.25c-7.22,8.19-19.14,12.85-29.22,16.17c-11.04,3.63-22.24,6.86-32.53,12.39c-10.14,5.45-19.5,13.29-23.5,24.42c-4.65,12.94-0.77,26.1,4.7,38.08c9.29,20.35,21.36,39.42,35.47,56.78c26.38,32.46,60.86,58.79,101.3,70.8c5.94,1.76,11.96,3.22,18.05,4.36c2.58,0.48,4.25-0.11,3.34,2.64c-0.12,0.35-0.36,0.68-0.54,0.99c-1.35,2.26-3.56,4.07-5.66,5.6c-11.92,8.72-27.62,12.73-41.7,16.18c-6.66,1.64-13.38,3.05-20.12,4.32c-6.7,1.26-14.86,1.29-21.12,4.01c-10.45,4.53-12.01,20.12-14.14,29.74c-0.83,3.76-1.69,7.51-2.69,11.23c-0.89,3.3-0.62,4.99-4.14,5.04c-6.04,0.1-12.12-1.5-18.02-2.59c-13.89-2.56-27.98-3.93-42.11-3.59c-15.44,0.37-31.21,2.15-45.56,8.12c-13.73,5.72-26.01,14.35-38.1,22.88c-21.13,14.91-42.59,29.7-68.27,35.39c-12.87,2.85-26.18,3.15-39.31,2.73c-14-0.45-27.79-3.36-40.78-8.57c-24.77-9.94-44.92-27.53-67.27-41.61c-12.7-8-26.19-14.34-41.11-16.68c-15.83-2.49-31.92-2.99-47.86-1.29c-6.19,0.66-12.33,1.64-18.45,2.79c-5.99,1.12-12.47,3.24-18.6,3c-2.89-0.12-2.92-0.99-3.69-3.7c-1.13-4.03-2.06-8.11-2.96-12.2c-1.38-6.25-2.54-12.65-4.79-18.66c-1.76-4.7-4.36-9.49-9.07-11.76c-6.02-2.9-14.26-2.84-20.8-4.07c-12.18-2.28-24.33-4.98-36.16-8.72c-10.16-3.21-22.41-7.12-30.06-15.04c-0.73-0.75-1.45-1.55-1.99-2.45c-0.18-0.29-0.43-0.61-0.53-0.94c-0.83-2.55,0.16-2.2,2.65-2.66c11.77-2.16,23.31-5.49,34.41-9.95c20.32-8.14,39.02-19.98,55.57-34.27c24.28-20.95,44.38-47.03,59.37-75.35c5.12-9.68,10.62-20.27,12.35-31.08c4.35-27.14-17.99-42.5-40.51-50.69c-11.96-4.35-24.29-7.33-35.45-13.67c-5.09-2.89-14.98-8.66-14.21-15.87c0.58-5.48,7.36-9.18,11.89-10.88c3.07-1.15,6.44-1.9,9.74-1.72c3.97,0.22,7.37,2.32,10.99,3.8c13.15,5.39,27.86,9.23,42.14,7.01c7.14-1.11,14.54-3.82,19.69-9.08c1.24-1.27,1.7-1.8,1.98-3.34c0.51-2.84-0.37-6.63-0.53-9.47c-0.45-7.58-0.94-15.16-1.41-22.74c-1.79-28.91-3.52-58.05-1.37-86.99c0.92-12.41,2.54-24.93,6.16-36.87c3.6-11.86,9.63-23.12,16.09-33.65c11.91-19.4,27.38-36.53,45.81-49.93c27.01-19.65,59.62-30.92,92.76-34.08C497.89,180.77,508.53,180.79,519.13,180.79M0,860.16C0,950.64,73.36,1024,163.84,1024L860.16,1024C950.64,1024,1024,950.64,1024,860.16L1024,163.84C1024,73.36,950.64,0,860.16,0L163.84,0C73.36,0,0,73.36,0,163.84L0,860.16" fill="#000000"/>
  <path d="M19.2,163.84C19.2,83.97,83.97,19.2,163.84,19.2L860.16,19.2C940.03,19.2,1004.8,83.97,1004.8,163.84L1004.8,860.16C1004.8,940.03,940.03,1004.8,860.16,1004.8L163.84,1004.8C83.97,1004.8,19.2,940.03,19.2,860.16L19.2,163.84M519.13,165.5c-24.47,0.11-48.23,1.61-71.93,8.33c-37.79,10.72-71.88,32.26-96.65,62.9c-15.35,18.98-28.69,41.56-34.43,65.45c-6.39,26.62-6.34,54.7-5.5,81.9c0.44,14.37,1.28,28.72,2.18,43.07c0.22,3.47,0.44,6.93,0.66,10.39c0.15,2.33,1.84,11.16,0.45,12.75c-2.9,3.3-12.12,3.07-15.87,2.93c-6.73-0.25-13.37-1.85-19.72-4.01c-6.93-2.36-13.48-6.55-20.87-7.27c-11.58-1.12-24.4,3.68-32.39,12.13c-13.58,14.37-4.97,31.33,9.05,41.07c11.32,7.86,24.27,11.98,37.22,16.24c10.71,3.52,22.5,7.59,30.67,15.7c11.93,11.84,5.25,27.44-1.05,40.38c-4.91,10.08-10.64,19.77-16.89,29.08c-21.29,31.68-49.68,59.53-84.47,75.94c-10.48,4.94-21.46,8.8-32.75,11.44c-5.54,1.3-12.28,1.38-17.04,4.74c-5.18,3.66-7.31,9.98-6.09,16.1c3.11,15.59,21.79,23.7,34.96,28.6c11.63,4.33,23.73,7.39,35.85,9.95c7.39,1.56,14.83,2.92,22.28,4.14c3.64,0.6,5.3,0.35,6.63,3.87c1.03,2.72,1.69,5.58,2.37,8.41c1.66,6.95,2.99,13.97,4.89,20.85c1.25,4.52,2.88,8.82,6.69,11.82c9.86,7.76,25.46,1.77,36.42-0.18c29.26-5.2,61.15-5.02,87.5,10.14c22.89,13.16,42.65,30.99,66.6,42.44c25.47,12.18,53.62,15.69,81.6,13.09c26.21-2.44,49.91-13.2,71.66-27.55c23.75-15.67,45.59-35.56,74.78-39.52c15.89-2.15,31.99-2.03,47.86,0.18c11,1.53,22.44,5.37,33.62,4.4c15.17-1.33,16.76-17.84,19.39-29.79c1.06-4.81,1.54-12,4.42-16.12c1.69-2.42,6.45-2.17,9.36-2.66c4.07-0.69,8.13-1.43,12.19-2.22c21.26-4.15,44.79-9.04,63.07-21.36c5.29-3.57,10.34-8.12,12.97-14.06c2.47-5.58,2.55-12.06-1.17-17.11c-3.89-5.29-9.58-5.88-15.55-7.08c-22.27-4.48-43.35-13.73-62.09-26.51c-28.72-19.58-52.02-46.83-69.39-76.79c-3.62-6.24-6.91-12.63-9.92-19.19c-4.64-10.12-8.83-22.09-1.61-32.1c6.65-9.22,18.67-13.85,29-17.48c12.7-4.46,25.55-7.94,37.24-14.86c8.53-5.05,17.49-12.19,19.94-22.31c6.42-26.59-31.59-40.05-51.35-31.56c-12.2,5.24-27.02,11.96-40.46,7.51c-0.87-0.29-2.4-0.57-3.04-1.23c-1.08-1.11-0.51-2.89-0.41-4.61c0.23-3.89,0.48-7.78,0.72-11.68c0.37-6.02,0.76-12.04,1.12-18.06c1.68-28.46,3.05-57.18,0.46-85.63c-1.15-12.64-3.08-25.33-6.96-37.44c-3.78-11.81-9.71-23.07-16.08-33.68c-11.86-19.77-27.09-37.47-45.22-51.74c-27.29-21.48-60.44-34.66-94.68-39.78C539.38,166.35,529.25,165.5,519.13,165.5M220.88,45.66A16.43,16.43,0,0,0,220.88,78.52A16.43,16.43,0,0,0,220.88,45.66M591.4,45.66A16.43,16.43,0,0,0,591.4,78.52A16.43,16.43,0,0,0,591.4,45.66M803.12,45.66A16.43,16.43,0,0,0,803.12,78.52A16.43,16.43,0,0,0,803.12,45.66M115.02,98.59A16.43,16.43,0,0,0,115.02,131.45A16.43,16.43,0,0,0,115.02,98.59M220.88,98.59A16.43,16.43,0,0,0,220.88,131.45A16.43,16.43,0,0,0,220.88,98.59M591.4,98.59A16.43,16.43,0,0,0,591.4,131.45A16.43,16.43,0,0,0,591.4,98.59M644.33,98.59A16.43,16.43,0,0,0,644.33,131.45A16.43,16.43,0,0,0,644.33,98.59M697.26,98.59A16.43,16.43,0,0,0,697.26,131.45A16.43,16.43,0,0,0,697.26,98.59M908.98,98.59A16.43,16.43,0,0,0,908.98,131.45A16.43,16.43,0,0,0,908.98,98.59M115.02,151.52A16.43,16.43,0,0,0,115.02,184.38A16.43,16.43,0,0,0,115.02,151.52M697.26,151.52A16.43,16.43,0,0,0,697.26,184.38A16.43,16.43,0,0,0,697.26,151.52M856.05,151.52A16.43,16.43,0,0,0,856.05,184.38A16.43,16.43,0,0,0,856.05,151.52M908.98,151.52A16.43,16.43,0,0,0,908.98,184.38A16.43,16.43,0,0,0,908.98,151.52M115.02,204.45A16.43,16.43,0,0,0,115.02,237.31A16.43,16.43,0,0,0,115.02,204.45M273.81,204.45A16.43,16.43,0,0,0,273.81,237.31A16.43,16.43,0,0,0,273.81,204.45M803.12,204.45A16.43,16.43,0,0,0,803.12,237.31A16.43,16.43,0,0,0,803.12,204.45M908.98,204.45A16.43,16.43,0,0,0,908.98,237.31A16.43,16.43,0,0,0,908.98,204.45M961.91,204.45A16.43,16.43,0,0,0,961.91,237.31A16.43,16.43,0,0,0,961.91,204.45M115.02,257.38A16.43,16.43,0,0,0,115.02,290.24A16.43,16.43,0,0,0,115.02,257.38M167.95,257.38A16.43,16.43,0,0,0,167.95,290.24A16.43,16.43,0,0,0,167.95,257.38M220.88,257.38A16.43,16.43,0,0,0,220.88,290.24A16.43,16.43,0,0,0,220.88,257.38M803.12,257.38A16.43,16.43,0,0,0,803.12,290.24A16.43,16.43,0,0,0,803.12,257.38M856.05,257.38A16.43,16.43,0,0,0,856.05,290.24A16.43,16.43,0,0,0,856.05,257.38M62.09,310.31A16.43,16.43,0,0,0,62.09,343.17A16.43,16.43,0,0,0,62.09,310.31M115.02,310.31A16.43,16.43,0,0,0,115.02,343.17A16.43,16.43,0,0,0,115.02,310.31M167.95,310.31A16.43,16.43,0,0,0,167.95,343.17A16.43,16.43,0,0,0,167.95,310.31M220.88,310.31A16.43,16.43,0,0,0,220.88,343.17A16.43,16.43,0,0,0,220.88,310.31M750.19,310.31A16.43,16.43,0,0,0,750.19,343.17A16.43,16.43,0,0,0,750.19,310.31M856.05,310.31A16.43,16.43,0,0,0,856.05,343.17A16.43,16.43,0,0,0,856.05,310.31M961.91,310.31A16.43,16.43,0,0,0,961.91,343.17A16.43,16.43,0,0,0,961.91,310.31M62.09,363.24A16.43,16.43,0,0,0,62.09,396.1A16.43,16.43,0,0,0,62.09,363.24M115.02,363.24A16.43,16.43,0,0,0,115.02,396.1A16.43,16.43,0,0,0,115.02,363.24M167.95,363.24A16.43,16.43,0,0,0,167.95,396.1A16.43,16.43,0,0,0,167.95,363.24M750.19,363.24A16.43,16.43,0,0,0,750.19,396.1A16.43,16.43,0,0,0,750.19,363.24M961.91,363.24A16.43,16.43,0,0,0,961.91,396.1A16.43,16.43,0,0,0,961.91,363.24M908.98,416.17A16.43,16.43,0,0,0,908.98,449.03A16.43,16.43,0,0,0,908.98,416.17M961.91,416.17A16.43,16.43,0,0,0,961.91,449.03A16.43,16.43,0,0,0,961.91,416.17M167.95,469.1A16.43,16.43,0,0,0,167.95,501.96A16.43,16.43,0,0,0,167.95,469.1M961.91,469.1A16.43,16.43,0,0,0,961.91,501.96A16.43,16.43,0,0,0,961.91,469.1M167.95,522.04A16.43,16.43,0,0,0,167.95,554.9A16.43,16.43,0,0,0,167.95,522.04M803.12,522.04A16.43,16.43,0,0,0,803.12,554.9A16.43,16.43,0,0,0,803.12,522.04M115.02,574.97A16.43,16.43,0,0,0,115.02,607.83A16.43,16.43,0,0,0,115.02,574.97M167.95,574.97A16.43,16.43,0,0,0,167.95,607.83A16.43,16.43,0,0,0,167.95,574.97M220.88,574.97A16.43,16.43,0,0,0,220.88,607.83A16.43,16.43,0,0,0,220.88,574.97M856.05,574.97A16.43,16.43,0,0,0,856.05,607.83A16.43,16.43,0,0,0,856.05,574.97M908.98,574.97A16.43,16.43,0,0,0,908.98,607.83A16.43,16.43,0,0,0,908.98,574.97M961.91,574.97A16.43,16.43,0,0,0,961.91,607.83A16.43,16.43,0,0,0,961.91,574.97M62.09,627.9A16.43,16.43,0,0,0,62.09,660.76A16.43,16.43,0,0,0,62.09,627.9M115.02,627.9A16.43,16.43,0,0,0,115.02,660.76A16.43,16.43,0,0,0,115.02,627.9M856.05,627.9A16.43,16.43,0,0,0,856.05,660.76A16.43,16.43,0,0,0,856.05,627.9M961.91,627.9A16.43,16.43,0,0,0,961.91,660.76A16.43,16.43,0,0,0,961.91,627.9M62.09,680.83A16.43,16.43,0,0,0,62.09,713.69A16.43,16.43,0,0,0,62.09,680.83M908.98,680.83A16.43,16.43,0,0,0,908.98,713.69A16.43,16.43,0,0,0,908.98,680.83M908.98,733.76A16.43,16.43,0,0,0,908.98,766.62A16.43,16.43,0,0,0,908.98,733.76M961.91,733.76A16.43,16.43,0,0,0,961.91,766.62A16.43,16.43,0,0,0,961.91,733.76M167.95,786.69A16.43,16.43,0,0,0,167.95,819.55A16.43,16.43,0,0,0,167.95,786.69M220.88,786.69A16.43,16.43,0,0,0,220.88,819.55A16.43,16.43,0,0,0,220.88,786.69M856.05,786.69A16.43,16.43,0,0,0,856.05,819.55A16.43,16.43,0,0,0,856.05,786.69M961.91,786.69A16.43,16.43,0,0,0,961.91,819.55A16.43,16.43,0,0,0,961.91,786.69M115.02,839.62A16.43,16.43,0,0,0,115.02,872.48A16.43,16.43,0,0,0,115.02,839.62M167.95,839.62A16.43,16.43,0,0,0,167.95,872.48A16.43,16.43,0,0,0,167.95,839.62M273.81,839.62A16.43,16.43,0,0,0,273.81,872.48A16.43,16.43,0,0,0,273.81,839.62M379.67,839.62A16.43,16.43,0,0,0,379.67,872.48A16.43,16.43,0,0,0,379.67,839.62M644.33,839.62A16.43,16.43,0,0,0,644.33,872.48A16.43,16.43,0,0,0,644.33,839.62M750.19,839.62A16.43,16.43,0,0,0,750.19,872.48A16.43,16.43,0,0,0,750.19,839.62M803.12,839.62A16.43,16.43,0,0,0,803.12,872.48A16.43,16.43,0,0,0,803.12,839.62M856.05,839.62A16.43,16.43,0,0,0,856.05,872.48A16.43,16.43,0,0,0,856.05,839.62M115.02,892.55A16.43,16.43,0,0,0,115.02,925.41A16.43,16.43,0,0,0,115.02,892.55M432.6,892.55A16.43,16.43,0,0,0,432.6,925.41A16.43,16.43,0,0,0,432.6,892.55M591.4,892.55A16.43,16.43,0,0,0,591.4,925.41A16.43,16.43,0,0,0,591.4,892.55M750.19,892.55A16.43,16.43,0,0,0,750.19,925.41A16.43,16.43,0,0,0,750.19,892.55M803.12,892.55A16.43,16.43,0,0,0,803.12,925.41A16.43,16.43,0,0,0,803.12,892.55M220.88,945.48A16.43,16.43,0,0,0,220.88,978.34A16.43,16.43,0,0,0,220.88,945.48M273.81,945.48A16.43,16.43,0,0,0,273.81,978.34A16.43,16.43,0,0,0,273.81,945.48M538.47,945.48A16.43,16.43,0,0,0,538.47,978.34A16.43,16.43,0,0,0,538.47,945.48" fill="#FFFC00"/>
  <path d="M519.13,180.79c27.04,0,54.42,5.88,79.08,16.94c40.83,18.31,74.18,52.87,90.69,94.6c9.45,23.89,9.73,51.4,9.51,76.72c-0.13,14.61-0.82,29.2-1.66,43.78c-0.43,7.33-0.89,14.65-1.35,21.98c-0.25,4.02-0.5,8.04-0.74,12.06c-0.15,2.59-1.05,6.09-0.48,8.64c1.25,5.61,10.15,9.35,15.06,10.9c12.97,4.08,26.53,1.14,39.01-3.31c7.44-2.65,14.14-7.09,22.3-6.34c5.91,0.54,12.76,3.18,16.97,7.46c4.42,4.5,3.49,8.94-0.31,13.25c-7.22,8.19-19.14,12.85-29.22,16.17c-11.04,3.63-22.24,6.86-32.53,12.39c-10.14,5.45-19.5,13.29-23.5,24.42c-4.65,12.94-0.77,26.1,4.7,38.08c9.29,20.35,21.36,39.42,35.47,56.78c26.38,32.46,60.86,58.79,101.3,70.8c5.94,1.76,11.96,3.22,18.05,4.36c2.58,0.48,4.25-0.11,3.34,2.64c-0.12,0.35-0.36,0.68-0.54,0.99c-1.35,2.26-3.56,4.07-5.66,5.6c-11.92,8.72-27.62,12.73-41.7,16.18c-6.66,1.64-13.38,3.05-20.12,4.32c-6.7,1.26-14.86,1.29-21.12,4.01c-10.45,4.53-12.01,20.12-14.14,29.74c-0.83,3.76-1.69,7.51-2.69,11.23c-0.89,3.3-0.62,4.99-4.14,5.04c-6.04,0.1-12.12-1.5-18.02-2.59c-13.89-2.56-27.98-3.93-42.11-3.59c-15.44,0.37-31.21,2.15-45.56,8.12c-13.73,5.72-26.01,14.35-38.1,22.88c-21.13,14.91-42.59,29.7-68.27,35.39c-12.87,2.85-26.18,3.15-39.31,2.73c-14-0.45-27.79-3.36-40.78-8.57c-24.77-9.94-44.92-27.53-67.27-41.61c-12.7-8-26.19-14.34-41.11-16.68c-15.83-2.49-31.92-2.99-47.86-1.29c-6.19,0.66-12.33,1.64-18.45,2.79c-5.99,1.12-12.47,3.24-18.6,3c-2.89-0.12-2.92-0.99-3.69-3.7c-1.13-4.03-2.06-8.11-2.96-12.2c-1.38-6.25-2.54-12.65-4.79-18.66c-1.76-4.7-4.36-9.49-9.07-11.76c-6.02-2.9-14.26-2.84-20.8-4.07c-12.18-2.28-24.33-4.98-36.16-8.72c-10.16-3.21-22.41-7.12-30.06-15.04c-0.73-0.75-1.45-1.55-1.99-2.45c-0.18-0.29-0.43-0.61-0.53-0.94c-0.83-2.55,0.16-2.2,2.65-2.66c11.77-2.16,23.31-5.49,34.41-9.95c20.32-8.14,39.02-19.98,55.57-34.27c24.28-20.95,44.38-47.03,59.37-75.35c5.12-9.68,10.62-20.27,12.35-31.08c4.35-27.14-17.99-42.5-40.51-50.69c-11.96-4.35-24.29-7.33-35.45-13.67c-5.09-2.89-14.98-8.66-14.21-15.87c0.58-5.48,7.36-9.18,11.89-10.88c3.07-1.15,6.44-1.9,9.74-1.72c3.97,0.22,7.37,2.32,10.99,3.8c13.15,5.39,27.86,9.23,42.14,7.01c7.14-1.11,14.54-3.82,19.69-9.08c1.24-1.27,1.7-1.8,1.98-3.34c0.51-2.84-0.37-6.63-0.53-9.47c-0.45-7.58-0.94-15.16-1.41-22.74c-1.79-28.91-3.52-58.05-1.37-86.99c0.92-12.41,2.54-24.93,6.16-36.87c3.6-11.86,9.63-23.12,16.09-33.65c11.91-19.4,27.38-36.53,45.81-49.93c27.01-19.65,59.62-30.92,92.76-34.08C497.89,180.77,508.53,180.79,519.13,180.79" fill="#FFFFFF"/>
</svg>
