<svg width="1500" height="1000" style="background:#000;" viewBox="0 0 1500 1000">
  <g fill="none" fill-rule="evenodd" stroke="#fff">
    <path d="M220,589 C214,580.5 193.5,572.905449 188,610.405449 C182.5,647.905449 215,641 220,630.5 C225,620 226,597.5 220,589 Z"></path>
    <path d="M1202.8439,508.126908 C1186.4421,495.718155 1172.35116,513.285661 1166.85116,550.785661 C1161.35116,588.285661 1189.87756,590.668559 1202.46602,576.472407 C1215.05448,562.276254 1219.2457,520.535661 1202.8439,508.126908 Z" transform="rotate(-60 1189.874 544.337)"></path>
    <path d="M1532.5155,592.07753 C1497.24856,579.668777 1456.70945,582.815317 1444.88343,620.315317 C1433.0574,657.815317 1504.63546,674.619181 1531.70299,660.423029 C1558.77053,646.226877 1567.78244,604.486283 1532.5155,592.07753 Z" transform="rotate(-60 1499.602 625.49)"></path>
    <path d="M1512.88163,611.928551 C1494.7681,605.555267 1473.94673,607.171368 1467.87274,626.431818 C1461.79875,645.692268 1498.5621,654.322934 1512.46431,647.03162 C1526.36653,639.740305 1530.99515,618.301836 1512.88163,611.928551 Z" transform="rotate(-60 1495.977 629.09)"></path>
    <path d="M692.66369,913.390423 C649.373764,900.981669 608.453163,932.890423 593.936794,970.390423 C579.420425,1007.89042 621.567248,1061.24777 684.305051,1027.91284 C747.042855,994.577899 735.953616,925.799176 692.66369,913.390423 Z" opacity=".5" transform="rotate(-150 659.659 974.543)"></path>
    <path d="M968.081023,792.076182 C957.357777,786.562562 947.221431,800.74068 943.625615,817.403174 C940.0298,834.065669 950.46989,857.77411 966.010524,842.962292 C981.551159,828.150473 978.804269,797.589803 968.081023,792.076182 Z" transform="rotate(-180 959.906 819.248)"></path>
    <path d="M650.846547,956.137998 C635.344429,951.694425 620.690766,963.120946 615.492456,976.549692 C610.294146,989.978438 625.386919,1009.0857 647.853319,997.148462 C670.31972,985.211225 666.348664,960.581571 650.846547,956.137998 Z" transform="rotate(-150 639.028 978.037)"></path>
    <path d="M277.99547,861.284821 C272.127048,858.383036 266.579815,865.844894 264.611963,874.614265 C262.644111,883.383636 268.357572,895.861247 276.862365,888.065876 C285.367159,880.270504 283.863891,864.186607 277.99547,861.284821 Z" transform="rotate(-150 273.521 875.585)"></path>
    <path d="M751.861528,480.725265 C725.185251,473.896923 747.774246,534.619534 732.619831,576.985366 C717.465416,619.351198 738.37153,640.666602 766.88827,600.414365 C795.405009,560.162128 778.537805,487.553606 751.861528,480.725265 Z" transform="rotate(-75 754.623 551.029)"></path>
    <path d="M234.853679,831.258955 C198.520031,819.327231 214.929307,900.01652 208.173137,944.235169 C205.209854,963.629641 199.626587,1002.76214 202.68063,1015.5336 C206.589688,1031.88057 224.371973,1026.10411 235.826456,1007.94385 C264.277039,962.837513 271.187327,843.190679 234.853679,831.258955 Z" transform="rotate(-150 230.74 927.612)"></path>
    <path d="M485.049824,729.553531 C462.950007,717.829616 447.781718,755.761327 440.371008,791.191704 C432.960298,826.622082 448.416609,852.240009 480.444707,820.744825 C512.472804,789.249641 507.149641,741.277446 485.049824,729.553531 Z" transform="rotate(-150 470.794 781.184)"></path>
    <path d="M1290.8344,811.365989 C1236.7114,803.475055 1174.54166,848.997426 1156.39265,872.844305 C1138.24364,896.691183 1190.93748,930.622017 1269.37509,909.423772 C1347.8127,888.225527 1344.95741,819.256923 1290.8344,811.365989 Z" transform="rotate(-105 1241.433 863.282)"></path>
    <path d="M1279.00208,883.145598 C1262.52622,879.677481 1246.95211,888.595646 1241.42728,899.076506 C1235.90245,909.557366 1251.94325,924.470191 1275.82084,915.153423 C1299.69843,905.836654 1295.47794,886.613716 1279.00208,883.145598 Z" opacity=".5" transform="rotate(-105 1266.44 900.237)"></path>
    <path d="M69.0943402,197.022266 C58.0471184,188.66451 48.5563513,200.496878 44.8518972,225.754519 C41.1474431,251.01216 60.3610333,252.617131 68.8398264,243.055495 C77.3186194,233.49386 80.1415619,205.380022 69.0943402,197.022266 Z" transform="rotate(-150 60.359 221.411)"></path>
    <path d="M578.33758,432.264713 C558.622491,417.349298 541.685081,438.465573 535.07404,483.540857 C528.462998,528.61614 562.751949,531.480401 577.88337,514.416519 C593.01479,497.352636 598.052669,447.180128 578.33758,432.264713 Z" transform="rotate(-150 562.748 475.79)"></path>
    <path d="M1056.17995,202.939421 C1048.68769,197.659797 1043.02675,205.000813 1040.51438,220.956155 C1038.00201,236.911497 1048.39211,241.151765 1054.14246,235.111645 C1059.8928,229.071526 1063.67221,208.219045 1056.17995,202.939421 Z" transform="rotate(105 1050.243 219.491)"></path>
    <path d="M391.353768,444.491036 C378.644527,431.939298 367.725904,449.709233 363.464126,487.641343 C359.202349,525.573453 381.306563,527.983809 391.060964,513.624075 C400.815364,499.264342 404.063009,457.042774 391.353768,444.491036 Z" transform="rotate(105 381.304 481.119)"></path>
    <path d="M943.231803,433.327293 C930.522561,424.557036 920.854619,439.683011 916.592841,466.187259 C912.331064,492.691506 929.104364,491.711276 938.858765,481.67772 C948.613166,471.644165 955.941044,442.097551 943.231803,433.327293 Z" opacity=".5" transform="rotate(120 932.96 459.512)"></path>
    <path d="M1159.27516,131.839825 C1139.19309,119.722046 1121.9404,136.87761 1115.2063,173.498266 C1108.4722,210.118923 1143.39941,212.445945 1158.81249,198.58268 C1174.22557,184.719415 1179.35723,143.957603 1159.27516,131.839825 Z" transform="rotate(-75 1143.395 167.201)"></path>
    <path d="M1149.59241,153.401375 C1141.7554,148.672427 1135.02257,155.367364 1132.39459,169.658529 C1129.76662,183.949693 1143.39692,184.85781 1149.41185,179.447689 C1155.42679,174.037568 1157.42941,158.130322 1149.59241,153.401375 Z" transform="rotate(-60 1143.395 167.201)"></path>
    <path d="M1645.36151,463.340757 C1543.38593,429.782812 1432.63102,536.87558 1400.22573,757.820725 C1367.82044,978.765871 1613.02746,1080.74703 1642.97292,970.230828 C1660.90304,904.058241 1480.28991,888.553193 1622.95277,739.034606 C1651.92353,708.671634 1788.42073,510.418438 1645.36151,463.340757 Z" transform="rotate(-165 1553.427 736.217)"></path>
    <path d="M224.5,563.5 C190.5,551.5 165,560.666667 148,591 C122.5,636.5 134.5,712.5 179.5,707.5 C224.5,702.5 253,666 301.5,697 C350,728 366.5,692.5 347,665 C327.5,637.5 276.01144,632.5 266,603.5 C259.325707,584.166667 245.492373,570.833333 224.5,563.5 Z"></path>
    <path d="M202.854058,571.5 C161.854058,571.5 156.5,609.5 156,623.834567 C155.5,638.169135 160.5,679 192,676 C223.5,673 255,666.5 249,635.5 C243,604.5 243.854058,571.5 202.854058,571.5 Z" opacity=".5"></path>
    <path d="M410.81933,121.10785 C403.042095,121.603895 401.930411,130.25086 403.34483,139.186636 C404.728705,147.929439 408.448218,156.97083 418.108809,156.942221 C437.643222,156.884371 426.205847,120.126472 410.81933,121.10785 Z" transform="rotate(-75 415.632 139.015)"></path>
    <path d="M439.82154,337.395305 C428.530317,338.115478 420.29164,343.566553 422.345137,356.539779 C424.354287,369.232841 436.379088,389.462249 450.404622,389.420714 C478.765266,389.336726 462.160144,335.970511 439.82154,337.395305 Z" transform="rotate(-75 443.72 363.394)"></path>
    <path d="M487.532362,49.2585548 C456.217859,49.2585548 439.457189,108.431385 444.730725,158.450869 C450.004262,208.470352 476.455704,253.214941 500.514408,247.451926 C524.573112,241.68891 511.27092,213.024949 506.68831,153.473788 C502.1057,93.9226269 518.846866,49.2585548 487.532362,49.2585548 Z" transform="rotate(105 479.135 148.606)"></path>
    <path d="M257,553 C232,519.5 169.5,520 134.5,567.5 C99.5,615 82.5,772 185.5,751 C288.5,730 348.5,764 383,737 C417.5,710 448,627.5 383,618.5 C318,609.5 282,586.5 257,553 Z"></path>
    <path d="M93.5,519.5 C132.212207,489.546513 179.5,445 285.5,519.5 C391.5,594 448,658.5 530.5,621.5 C613,584.5 716,564 811,703 C906,842 798.5,862 764,837.5 C729.5,813 616.5,749.5 497.5,869.5 C378.5,989.5 392,803.5 298,799 C204,794.5 159,926 28,1043.5 C-103,1161 -267.5,902.5 -182.5,869.5 C-97.5,836.5 -28,821.5 -4,743.5 C20,665.5 54.7877928,549.453487 93.5,519.5 Z" opacity=".5"></path>
    <path stroke-width="2" d="M501,55.5 C350,51.5 280,122 315,169.5 C350,217 527,226.5 567,289 C607,351.5 498,479 393.5,429.5 C289,380 272,462 311,501.5 C350,541 438,631 560.5,567.5 C683,504 647.5,282.859594 785,314 C922.5,345.140406 1110,347.5 1235.5,276.5 C1361,205.5 1262.5,46.5 1121,72.5 C979.5,98.5 918,193.5 802.5,175 C687,156.5 652,59.5 501,55.5 Z"></path>
    <path d="M1213.5,317 C1130,365 952,374.5 820,350 C688,325.5 682.5,440 752,469 C821.5,498 923,465 1062,759.5 C1201,1054 1398.5,1151 1612,978 C1825.5,805 1817,405.502562 1592.5,412.5 C1368,419.497438 1432,696.5 1253.5,658.5 C1075,620.5 999,479.5 1184.5,440 C1370,400.5 1297,269 1213.5,317 Z" opacity=".5"></path>
    <path d="M448 936C492.5 907 576 798 694.5 855 813 912 879.5 881 886.5 791.5 893.5 702 773 582.5 694.5 567.5 616 552.5 679.5 481.5 786.5 513 893.5 544.5 975.5 623 1032.5 780.5 1089.5 938 1147 1049.5 1301.5 1078 1456 1106.5 1438 1176 1414.5 1254.5 1391 1333 903.5 1401 647.5 1287 391.5 1173 297.5 1142.5 423.5 1064 549.5 985.5 526.5 940 471.5 970 416.5 1000 403.5 965 448 936zM1169.5 42.5C1241.5 42.5 1323 116.5 1323 180 1323 243.5 1254.5 282 1309.5 298.5 1364.5 315 1345 431 1251 452.5 1157 474 1086.5 508.5 1146 567.5 1205.5 626.5 1321.5 663.5 1385 546 1448.5 428.5 1543 308.5 1760 426.5 1904.66667 505.166667 1983.66667 367 1997 12 1831.66667-45.511301 1733.66667-8.34463432 1703 123.5 1657 321.266951 1521.5 275.5 1494 216 1466.5 156.5 1471 8 1500.5-27.5 1530-63 1221-66 1101.5-51 1021.83333-41 859.333333-44.1666667 614-60.5 556.666667-29.1666667 559.666667 8.33333333 623 52 718 117.5 778 190 909 132 1040 74 1097.5 42.5 1169.5 42.5z"></path>
    <path d="M513.5,-106.5 C529.166667,-55.8333333 541.833333,-17 551.5,10 C566,50.5 476.5,27 413.5,33 C350.5,39 288.5,83.5 281.5,128 C274.5,172.5 289,217.5 394.5,239 C500,260.5 545.5,295.5 536,348 C526.5,400.5 446,427.5 400.5,401 C355,374.5 320.5,369.5 287.5,390 C254.5,410.5 264.5,442.5 245,455.5 C225.5,468.5 212.721519,435 120.677221,466 C28.6329232,497 13.5,596.5 -8.5,662 C-30.5,727.5 -1.5,796.5 -210.5,834 C-419.5,871.5 -375,234 -113.5,285 C148,336 172,246 132,164.5 C92,83 154,-126.5 413.5,-106.5 C586.5,-93.1666667 619.833333,-93.1666667 513.5,-106.5 Z" opacity=".5"></path>
    <path d="M-183,1030 C-118,1090.66667 -62.6666667,1116.5 -17,1107.5 C51.5,1094 132.5,986 174,930 C215.5,874 280.5,812.5 315.5,839 C350.5,865.5 241.5,928 286.5,956 C331.5,984 360.5,904 390.5,921 C420.5,938 377.5,975 299,1052.5 C246.666667,1104.16667 263,1162.66667 348,1228 L-225,1212 L-183,1030 Z"></path>
    <path stroke-width="2" d="M708.336033,899.291988 C639.686411,879.883195 575.579774,908.633041 563,966.5 C550.420226,1024.36696 636.451612,1084.39437 742.121711,1045.93621 C847.79181,1007.47804 954,958 1133.5,1184.5 C1313,1411 1327,1154 1210.5,1084.5 C1094,1015 1049,906 1027.5,844 C967.386816,670.650352 921,735 898,833.5 C877.80669,919.980046 776.985655,918.700782 708.336033,899.291988 Z"></path>
    <path d="M998.5,143 C1077,112 1156.5,63.5 1206.5,129.5 C1256.5,195.5 1204.5,252 1133.5,235.5 C1062.5,219 1072.5,170 1017,202.5 C961.5,235 920,174 998.5,143 Z"></path>
    <path d="M-59.7786874,44.887293 C14.1352883,3.36773979 63.1948888,-17.0559993 113.194889,48.9440007 C163.194889,114.944001 124.251314,192.094291 37.8904431,268.512875 C-48.4704275,344.931459 -21.3451285,210.913855 -87.5531319,175.238229 C-153.761135,139.562604 -133.692663,86.4068463 -59.7786874,44.887293 Z" transform="rotate(-150 3.79 149.028)"></path>
    <path d="M1200 148C1221 174.800347 1197.5 222 1164 223 1130.5 224 1090.5 199.598283 1077.5 186.5 1064.5 173.401717 1042 167.899838 1020.5 176.5 999 185.100162 991 169 1008 156.5 1025 144 1059 129.5 1107 117 1155 104.5 1179 121.199653 1200 148zM1162 361.5C1204.3768 349.510466 1221.5 333 1249.5 339.5 1277.5 346 1292 393 1191.5 414 1091 435 1040.5 442.5 1050.5 513 1060.5 583.5 990.5 598 947.5 539 904.5 480 828 456.887565 780 445 732 433.112435 729.5 365.5 838.5 382 947.5 398.5 1012 402 1044.5 397.5 1077 393 1119.6232 373.489534 1162 361.5z"></path>
    <path d="M29,58.5 C64.5,62 77.5,83 59,121 C40.5,159 14,182.5 21.5,212.5 C29,242.5 -0.5,265.5 -53,242.5 C-105.5,219.5 -126.5,181.5 -112,142 C-97.5,102.5 -6.5,55 29,58.5 Z" opacity=".5"></path>
    <path d="M29.3531753,77 C52.255188,79.2579449 41.288027,108.582115 29.3531753,133.096946 C17.4183236,157.611776 1,170 6,208.5 C11,247 -16.6308263,241.837924 -50.5,227 C-84.3691737,212.162076 -84.9635619,168.241561 -64.5,133.096946 C-44.0364381,97.9523305 6.45116263,74.7420551 29.3531753,77 Z"></path>
    <path d="M-17.9199498 126C-3.77306929 127.394763 5.8807569 141.60218-1.4915611 156.745319-8.86387911 171.888459-12.5885671 177.718033-9.5 201.5-6.41143292 225.281967-24.578557 227.165585-45.5 218-66.421443 208.834415-67.1406167 174.2093-54.5 152.5-41.8593833 130.7907-32.0668303 124.605237-17.9199498 126zM362.5 122.5C394 68 576.5 82.5 622.5 122.5 668.5 162.5 665 245 532.5 219.5 400 194 331 177 362.5 122.5z"></path>
    <path d="M1379.64512,732.669543 C1438.64512,684.669543 1528.49637,734.487474 1651.09058,772.826874 C1773.68479,811.166275 1666.20566,950.006964 1505.81851,920.208272 C1345.43136,890.409579 1320.64512,780.669543 1379.64512,732.669543 Z" transform="rotate(-60 1527.266 818.643)"></path>
    <path d="M1445.30606,805.069513 C1475.81238,780.250809 1546.93487,808.16702 1572.35475,837.659917 C1597.77462,867.152815 1585.68653,917.629136 1517.17657,904.444199 C1448.66661,891.259263 1414.79973,829.888217 1445.30606,805.069513 Z" opacity=".5" transform="rotate(-60 1509.326 851.045)"></path>
    <path d="M1471.05534,817.679527 C1492.24352,800.441683 1541.64169,819.830902 1559.29708,840.315211 C1576.95247,860.799519 1568.55668,895.857875 1520.97304,886.70027 C1473.38941,877.542665 1449.86716,834.917372 1471.05534,817.679527 Z" transform="rotate(-60 1515.52 849.612)"></path>
    <path d="M1406.81635,794.609763 C1450.89842,758.74638 1553.67144,799.085704 1590.40352,841.703364 C1627.13561,884.321023 1609.66814,957.260028 1510.67027,938.207606 C1411.67239,919.155184 1362.73427,830.473145 1406.81635,794.609763 Z" transform="rotate(-60 1499.326 861.045)"></path>
    <path d="M1503.05752,826.934107 C1513.28018,815.224523 1537.43528,827.259052 1545.40549,837.017039 C1553.3757,846.775026 1547.1856,869.823042 1524.22792,863.602325 C1501.27024,857.381609 1492.83485,838.643692 1503.05752,826.934107 Z" transform="rotate(-60 1523.74 843.377)"></path>
    <path d="M-62,324.5 C38,345.5 83,330.5 180.5,262 C219.640891,234.501015 282.176304,229.3194 287.5,283 C293.5,343.5 208.341046,412.21156 142.5,417 C32.5,425 -12,519.5 -24.5,579 C-37,638.5 -33,709.5 -85,714.5 C-137,719.5 -147,641.5 -138.5,549 C-130,456.5 -49.5,481.5 -41,443 C-32.5,404.5 -97,401 -124,384.5 C-151,368 -162,303.5 -62,324.5 Z"></path>
    <path d="M116,331 C176,303.5 230.5,244 254,279 C277.5,314 204.5,385 156,382 C107.5,379 62.5,403 37.5,430 C12.5,457 -12.5,433 -32,407.5 C-51.5,382 -129.46243,379.144685 -118,351.5 C-109.5,331 -68,343 -12,351.5 C33.6602827,358.430579 87.4509169,344.084996 116,331 Z"></path>
    <path d="M230,292.5 C243,302.5 233,323.5 202,348 C171,372.5 147,338.5 169.5,321 C192,303.5 217,282.5 230,292.5 Z"></path>
    <path stroke-width="2" d="M1078.5,746 C1058,703.5 1010,625.5 1039,604.5 C1068,583.5 1099,633.5 1165.5,664.5 C1232,695.5 1309,694.5 1359,658.5 C1409,622.5 1500.5,662 1394,758.5 C1287.5,855 1336.5,892.5 1325,945 C1313.5,997.5 1254,961 1203,918.5 C1152,876 1099,788.5 1078.5,746 Z"></path>
    <path d="M356 507C317.5 478.5 314.5 424.25 381 452 447.5 479.75 519 467 548.5 424.25 578 381.5 648 427.5 618 478.5 588 529.5 524.504077 564.5 477.004077 557.5 429.504077 550.5 394.5 535.5 356 507zM534.5 639.5C582.5 605 687.5 616 727.5 647 767.5 678 840.5 764 793 790.5 745.5 817 687.5 735 600.512569 772.5 513.525137 810 476.5 873 440.5 876 404.5 879 381 840 382.5 799 384 758 431.5 754.5 436 698 440.5 641.5 486.5 674 534.5 639.5z"></path>
    <path d="M431,756 C458,724.5 447.5,683.5 480,679.5 C578.149307,667.420085 599.068597,645.455881 629,646.5 C672,648 715.5,644.5 756.5,708.5 C797.5,772.5 750.5,775 694.5,743.5 C638.5,712 568,753.5 544.5,775 C521,796.5 461,861 431,850 C401,839 394.812606,798.218626 431,756 Z"></path>
    <path stroke-width="2" d="M-151.5,929.5 C-144.026842,878.983768 -88.5,869.229381 -35,832.5 C-21.7412292,823.39745 7.38049438,802.668816 21.3951552,773.5 C31.6288158,752.200608 34,713 45,702.5 C56,692 79.6478621,677.585999 92.5,715 C115,780.5 144.5,768.5 167,773.5 C189.5,778.5 202.5,808.5 151,864.231057 C99.5,919.962113 21.5,1048.5 -47,1045 C-115.5,1041.5 -158.973158,980.016232 -151.5,929.5 Z"></path>
    <path d="M-106.5 994C-124.961046 974.118874-138.5 919-98.5 900.5-58.5 882 19.5 850.5 30.5 803.5 41.5 756.5 66.5 747 86.5 780 94.0539681 792.464047 108.926449 797.176993 126 798.5 160.685461 801.18773 165.5 836.5 115.5 870 55.2332297 910.378736 26.5 1001-15.5 1010.5-57.5 1020-88.0389542 1013.88113-106.5 994zM1293 68C1245 37 1343 2 1397.5 52 1452 102 1428.5 189 1466 237 1503.5 285 1532.5 270 1559 299 1577.12745 318.83759 1581.32154 342.701193 1548.5 357.5 1533.34068 364.335141 1512.69293 363.995563 1495 373 1439 401.5 1390 473.5 1349.5 531.5 1309 589.5 1203.5 515.5 1293 462 1382.5 408.5 1379 348.5 1368.5 310 1358 271.5 1309.5 283.5 1340 231.5 1370.5 179.5 1341 99 1293 68zM916 864.5C924.5 832.5 927 806.5 942 786 957 765.5 978.5 757 1005 836.5 1031.5 916 1042 956 1081 993 1120 1030 1104.5 1096.5 1034 1052 963.5 1007.5 932.5 965 853 989 773.5 1013 753 943 816.5 927 880 911 907.5 896.5 916 864.5z" opacity=".5"></path>
    <path d="M717 162.5C733.5 176 774.5 201.5 852 194.5 929.5 187.5 984.5 272.150899 903 291 821.5 309.849101 737.5 259 700 299.5 662.5 340 650 388 632 395.5 614 403 572.5 396.5 587.5 353.5 594.789941 332.60217 602 284 581 271.5 560 259 565.081305 237.020761 592.5 238 643.738665 239.829952 665 210.5 665 175.5 665 140.5 700.5 149 717 162.5zM1181 690C1255 718.5 1314.5 717.5 1348.5 690 1382.5 662.5 1426.90789 678.577083 1400.5 721.5 1383 749.944189 1344 774.5 1331.5 808 1319 841.5 1297.47053 815.996641 1287 800 1269 772.5 1252 760 1172 766.5 1092 773 1107 661.5 1181 690zM740.5 537.5C735.855424 532.355239 721 531 712.5 537.5 704 544 715.5 547.5 731.75 549.5 748 551.5 745.144576 542.644761 740.5 537.5z"></path>
    <path d="M401.5,263.5 C436.008232,264.5 498,280.5 509.5,313.5 C521,346.5 505.5,370 468.5,385.5 C449.349759,393.522398 415,398.5 406,374 C397,349.5 426.990926,341.167803 434.5,336.5 C453,325 446.928591,297.5 412.5,304.5 C378.071409,311.5 366.991768,262.5 401.5,263.5 Z" opacity=".5"></path>
    <path d="M924.5 915.5C902 932 851 933 821.5 942.5 792 952 800.5 985 847 969.5 893.5 954 916 959.5 960.5 984 1005 1008.5 1012.5 963 1006.5 929.5 1000.5 896 985.5 861 960.5 866 935.5 871 947 899 924.5 915.5zM949.957009 440.01102C914.156922 410.500138 852.232449 394.05145 809.175588 397.437945 766.118728 400.824439 756.980903 424.046117 831 440.01102 905.019097 455.975924 928.670471 507.257128 949.957009 499.032784 971.243546 490.80844 985.757095 469.521902 949.957009 440.01102zM725 40.5C696 66 719 97 755.5 115 792 133 874 138.5 920 103 966 67.5 913.95149 26.5 863 17.5 812.04851 8.5 754 15 725 40.5z"></path>
    <path d="M786,52 C760.5,74.5 763.5,99.5 795.5,112 C827.5,124.5 885.739074,109.565497 908.5,92 C931.260926,74.4345028 888.210937,39.9532246 863,35.5 C837.789063,31.0467754 811.5,29.5 786,52 Z"></path>
  </g>
</svg>