<svg height="1024" viewBox="0 0 1024 1024" width="1024" xmlns="http://www.w3.org/2000/svg"><path d="M519.13 180.79c27.04 0 54.42 5.88 79.08 16.94 40.83 18.31 74.18 52.87 90.69 94.6 9.45 23.89 9.73 51.4 9.51 76.72-.13 14.61-.82 29.2-1.66 43.78-.43 7.33-.89 14.65-1.35 21.98-.25 4.02-.5 8.04-.74 12.06-.15 2.59-1.05 6.09-.48 8.64 1.25 5.61 10.15 9.35 15.06 10.9 12.97 4.08 26.53 1.14 39.01-3.31 7.44-2.65 14.14-7.09 22.3-6.34 5.91.54 12.76 3.18 16.97 7.46 4.42 4.5 3.49 8.94-.31 13.25-7.22 8.19-19.14 12.85-29.22 16.17-11.04 3.63-22.24 6.86-32.53 12.39-10.14 5.45-19.5 13.29-23.5 24.42-4.65 12.94-.77 26.1 4.7 38.08 9.29 20.35 21.36 39.42 35.47 56.78 26.38 32.46 60.86 58.79 101.3 70.8 5.94 1.76 11.96 3.22 18.05 4.36 2.58.48 4.25-.11 3.34 2.64-.12.35-.36.68-.54.99-1.35 2.26-3.56 4.07-5.66 5.6-11.92 8.72-27.62 12.73-41.7 16.18-6.66 1.64-13.38 3.05-20.12 4.32-6.7 1.26-14.86 1.29-21.12 4.01-10.45 4.53-12.01 20.12-14.14 29.74-.83 3.76-1.69 7.51-2.69 11.23-.89 3.3-.62 4.99-4.14 5.04-6.04.1-12.12-1.5-18.02-2.59-13.89-2.56-27.98-3.93-42.11-3.59-15.44.37-31.21 2.15-45.56 8.12-13.73 5.72-26.01 14.35-38.1 22.88-21.13 14.91-42.59 29.7-68.27 35.39-12.87 2.85-26.18 3.15-39.31 2.73-14-.45-27.79-3.36-40.78-8.57-24.77-9.94-44.92-27.53-67.27-41.61-12.7-8-26.19-14.34-41.11-16.68-15.83-2.49-31.92-2.99-47.86-1.29-6.19.66-12.33 1.64-18.45 2.79-5.99 1.12-12.47 3.24-18.6 3-2.89-.12-2.92-.99-3.69-3.7-1.13-4.03-2.06-8.11-2.96-12.2-1.38-6.25-2.54-12.65-4.79-18.66-1.76-4.7-4.36-9.49-9.07-11.76-6.02-2.9-14.26-2.84-20.8-4.07-12.18-2.28-24.33-4.98-36.16-8.72-10.16-3.21-22.41-7.12-30.06-15.04-.73-.75-1.45-1.55-1.99-2.45-.18-.29-.43-.61-.53-.94-.83-2.55.16-2.2 2.65-2.66 11.77-2.16 23.31-5.49 34.41-9.95 20.32-8.14 39.02-19.98 55.57-34.27 24.28-20.95 44.38-47.03 59.37-75.35 5.12-9.68 10.62-20.27 12.35-31.08 4.35-27.14-17.99-42.5-40.51-50.69-11.96-4.35-24.29-7.33-35.45-13.67-5.09-2.89-14.98-8.66-14.21-15.87.58-5.48 7.36-9.18 11.89-10.88 3.07-1.15 6.44-1.9 9.74-1.72 3.97.22 7.37 2.32 10.99 3.8 13.15 5.39 27.86 9.23 42.14 7.01 7.14-1.11 14.54-3.82 19.69-9.08 1.24-1.27 1.7-1.8 1.98-3.34.51-2.84-.37-6.63-.53-9.47-.45-7.58-.94-15.16-1.41-22.74-1.79-28.91-3.52-58.05-1.37-86.99.92-12.41 2.54-24.93 6.16-36.87 3.6-11.86 9.63-23.12 16.09-33.65 11.91-19.4 27.38-36.53 45.81-49.93 27.01-19.65 59.62-30.92 92.76-34.08 10.55-1.01 21.19-.99 31.79-.99M0 860.16C0 950.64 73.36 1024 163.84 1024h696.32c90.48 0 163.84-73.36 163.84-163.84V163.84C1024 73.36 950.64 0 860.16 0H163.84C73.36 0 0 73.36 0 163.84v696.32"/><path d="M19.2 163.84C19.2 83.97 83.97 19.2 163.84 19.2h696.32c79.87 0 144.64 64.77 144.64 144.64v696.32c0 79.87-64.77 144.64-144.64 144.64H163.84c-79.87 0-144.64-64.77-144.64-144.64V163.84m499.93 1.66c-24.47.11-48.23 1.61-71.93 8.33-37.79 10.72-71.88 32.26-96.65 62.9-15.35 18.98-28.69 41.56-34.43 65.45-6.39 26.62-6.34 54.7-5.5 81.9.44 14.37 1.28 28.72 2.18 43.07l.66 10.39c.15 2.33 1.84 11.16.45 12.75-2.9 3.3-12.12 3.07-15.87 2.93-6.73-.25-13.37-1.85-19.72-4.01-6.93-2.36-13.48-6.55-20.87-7.27-11.58-1.12-24.4 3.68-32.39 12.13-13.58 14.37-4.97 31.33 9.05 41.07 11.32 7.86 24.27 11.98 37.22 16.24 10.71 3.52 22.5 7.59 30.67 15.7 11.93 11.84 5.25 27.44-1.05 40.38-4.91 10.08-10.64 19.77-16.89 29.08-21.29 31.68-49.68 59.53-84.47 75.94-10.48 4.94-21.46 8.8-32.75 11.44-5.54 1.3-12.28 1.38-17.04 4.74-5.18 3.66-7.31 9.98-6.09 16.1 3.11 15.59 21.79 23.7 34.96 28.6 11.63 4.33 23.73 7.39 35.85 9.95 7.39 1.56 14.83 2.92 22.28 4.14 3.64.6 5.3.35 6.63 3.87 1.03 2.72 1.69 5.58 2.37 8.41 1.66 6.95 2.99 13.97 4.89 20.85 1.25 4.52 2.88 8.82 6.69 11.82 9.86 7.76 25.46 1.77 36.42-.18 29.26-5.2 61.15-5.02 87.5 10.14 22.89 13.16 42.65 30.99 66.6 42.44 25.47 12.18 53.62 15.69 81.6 13.09 26.21-2.44 49.91-13.2 71.66-27.55 23.75-15.67 45.59-35.56 74.78-39.52 15.89-2.15 31.99-2.03 47.86.18 11 1.53 22.44 5.37 33.62 4.4 15.17-1.33 16.76-17.84 19.39-29.79 1.06-4.81 1.54-12 4.42-16.12 1.69-2.42 6.45-2.17 9.36-2.66 4.07-.69 8.13-1.43 12.19-2.22 21.26-4.15 44.79-9.04 63.07-21.36 5.29-3.57 10.34-8.12 12.97-14.06 2.47-5.58 2.55-12.06-1.17-17.11-3.89-5.29-9.58-5.88-15.55-7.08-22.27-4.48-43.35-13.73-62.09-26.51-28.72-19.58-52.02-46.83-69.39-76.79-3.62-6.24-6.91-12.63-9.92-19.19-4.64-10.12-8.83-22.09-1.61-32.1 6.65-9.22 18.67-13.85 29-17.48 12.7-4.46 25.55-7.94 37.24-14.86 8.53-5.05 17.49-12.19 19.94-22.31 6.42-26.59-31.59-40.05-51.35-31.56-12.2 5.24-27.02 11.96-40.46 7.51-.87-.29-2.4-.57-3.04-1.23-1.08-1.11-.51-2.89-.41-4.61.23-3.89.48-7.78.72-11.68.37-6.02.76-12.04 1.12-18.06 1.68-28.46 3.05-57.18.46-85.63-1.15-12.64-3.08-25.33-6.96-37.44-3.78-11.81-9.71-23.07-16.08-33.68-11.86-19.77-27.09-37.47-45.22-51.74-27.29-21.48-60.44-34.66-94.68-39.78-9.99-1.51-20.12-2.36-30.24-2.36M220.88 45.66a16.43 16.43 0 0 0 0 32.86 16.43 16.43 0 0 0 0-32.86m370.52 0a16.43 16.43 0 0 0 0 32.86 16.43 16.43 0 0 0 0-32.86m211.72 0a16.43 16.43 0 0 0 0 32.86 16.43 16.43 0 0 0 0-32.86m-688.1 52.93a16.43 16.43 0 0 0 0 32.86 16.43 16.43 0 0 0 0-32.86m105.86 0a16.43 16.43 0 0 0 0 32.86 16.43 16.43 0 0 0 0-32.86m370.52 0a16.43 16.43 0 0 0 0 32.86 16.43 16.43 0 0 0 0-32.86m52.93 0a16.43 16.43 0 0 0 0 32.86 16.43 16.43 0 0 0 0-32.86m52.93 0a16.43 16.43 0 0 0 0 32.86 16.43 16.43 0 0 0 0-32.86m211.72 0a16.43 16.43 0 0 0 0 32.86 16.43 16.43 0 0 0 0-32.86m-793.96 52.93a16.43 16.43 0 0 0 0 32.86 16.43 16.43 0 0 0 0-32.86m582.24 0a16.43 16.43 0 0 0 0 32.86 16.43 16.43 0 0 0 0-32.86m158.79 0a16.43 16.43 0 0 0 0 32.86 16.43 16.43 0 0 0 0-32.86m52.93 0a16.43 16.43 0 0 0 0 32.86 16.43 16.43 0 0 0 0-32.86m-793.96 52.93a16.43 16.43 0 0 0 0 32.86 16.43 16.43 0 0 0 0-32.86m158.79 0a16.43 16.43 0 0 0 0 32.86 16.43 16.43 0 0 0 0-32.86m529.31 0a16.43 16.43 0 0 0 0 32.86 16.43 16.43 0 0 0 0-32.86m105.86 0a16.43 16.43 0 0 0 0 32.86 16.43 16.43 0 0 0 0-32.86m52.93 0a16.43 16.43 0 0 0 0 32.86 16.43 16.43 0 0 0 0-32.86m-846.89 52.93a16.43 16.43 0 0 0 0 32.86 16.43 16.43 0 0 0 0-32.86m52.93 0a16.43 16.43 0 0 0 0 32.86 16.43 16.43 0 0 0 0-32.86m52.93 0a16.43 16.43 0 0 0 0 32.86 16.43 16.43 0 0 0 0-32.86m582.24 0a16.43 16.43 0 0 0 0 32.86 16.43 16.43 0 0 0 0-32.86m52.93 0a16.43 16.43 0 0 0 0 32.86 16.43 16.43 0 0 0 0-32.86M62.09 310.31a16.43 16.43 0 0 0 0 32.86 16.43 16.43 0 0 0 0-32.86m52.93 0a16.43 16.43 0 0 0 0 32.86 16.43 16.43 0 0 0 0-32.86m52.93 0a16.43 16.43 0 0 0 0 32.86 16.43 16.43 0 0 0 0-32.86m52.93 0a16.43 16.43 0 0 0 0 32.86 16.43 16.43 0 0 0 0-32.86m529.31 0a16.43 16.43 0 0 0 0 32.86 16.43 16.43 0 0 0 0-32.86m105.86 0a16.43 16.43 0 0 0 0 32.86 16.43 16.43 0 0 0 0-32.86m105.86 0a16.43 16.43 0 0 0 0 32.86 16.43 16.43 0 0 0 0-32.86M62.09 363.24a16.43 16.43 0 0 0 0 32.86 16.43 16.43 0 0 0 0-32.86m52.93 0a16.43 16.43 0 0 0 0 32.86 16.43 16.43 0 0 0 0-32.86m52.93 0a16.43 16.43 0 0 0 0 32.86 16.43 16.43 0 0 0 0-32.86m582.24 0a16.43 16.43 0 0 0 0 32.86 16.43 16.43 0 0 0 0-32.86m211.72 0a16.43 16.43 0 0 0 0 32.86 16.43 16.43 0 0 0 0-32.86m-52.93 52.93a16.43 16.43 0 0 0 0 32.86 16.43 16.43 0 0 0 0-32.86m52.93 0a16.43 16.43 0 0 0 0 32.86 16.43 16.43 0 0 0 0-32.86M167.95 469.1a16.43 16.43 0 0 0 0 32.86 16.43 16.43 0 0 0 0-32.86m793.96 0a16.43 16.43 0 0 0 0 32.86 16.43 16.43 0 0 0 0-32.86m-793.96 52.94a16.43 16.43 0 0 0 0 32.86 16.43 16.43 0 0 0 0-32.86m635.17 0a16.43 16.43 0 0 0 0 32.86 16.43 16.43 0 0 0 0-32.86m-688.1 52.93a16.43 16.43 0 0 0 0 32.86 16.43 16.43 0 0 0 0-32.86m52.93 0a16.43 16.43 0 0 0 0 32.86 16.43 16.43 0 0 0 0-32.86m52.93 0a16.43 16.43 0 0 0 0 32.86 16.43 16.43 0 0 0 0-32.86m635.17 0a16.43 16.43 0 0 0 0 32.86 16.43 16.43 0 0 0 0-32.86m52.93 0a16.43 16.43 0 0 0 0 32.86 16.43 16.43 0 0 0 0-32.86m52.93 0a16.43 16.43 0 0 0 0 32.86 16.43 16.43 0 0 0 0-32.86M62.09 627.9a16.43 16.43 0 0 0 0 32.86 16.43 16.43 0 0 0 0-32.86m52.93 0a16.43 16.43 0 0 0 0 32.86 16.43 16.43 0 0 0 0-32.86m741.03 0a16.43 16.43 0 0 0 0 32.86 16.43 16.43 0 0 0 0-32.86m105.86 0a16.43 16.43 0 0 0 0 32.86 16.43 16.43 0 0 0 0-32.86M62.09 680.83a16.43 16.43 0 0 0 0 32.86 16.43 16.43 0 0 0 0-32.86m846.89 0a16.43 16.43 0 0 0 0 32.86 16.43 16.43 0 0 0 0-32.86m0 52.93a16.43 16.43 0 0 0 0 32.86 16.43 16.43 0 0 0 0-32.86m52.93 0a16.43 16.43 0 0 0 0 32.86 16.43 16.43 0 0 0 0-32.86m-793.96 52.93a16.43 16.43 0 0 0 0 32.86 16.43 16.43 0 0 0 0-32.86m52.93 0a16.43 16.43 0 0 0 0 32.86 16.43 16.43 0 0 0 0-32.86m635.17 0a16.43 16.43 0 0 0 0 32.86 16.43 16.43 0 0 0 0-32.86m105.86 0a16.43 16.43 0 0 0 0 32.86 16.43 16.43 0 0 0 0-32.86m-846.89 52.93a16.43 16.43 0 0 0 0 32.86 16.43 16.43 0 0 0 0-32.86m52.93 0a16.43 16.43 0 0 0 0 32.86 16.43 16.43 0 0 0 0-32.86m105.86 0a16.43 16.43 0 0 0 0 32.86 16.43 16.43 0 0 0 0-32.86m105.86 0a16.43 16.43 0 0 0 0 32.86 16.43 16.43 0 0 0 0-32.86m264.66 0a16.43 16.43 0 0 0 0 32.86 16.43 16.43 0 0 0 0-32.86m105.86 0a16.43 16.43 0 0 0 0 32.86 16.43 16.43 0 0 0 0-32.86m52.93 0a16.43 16.43 0 0 0 0 32.86 16.43 16.43 0 0 0 0-32.86m52.93 0a16.43 16.43 0 0 0 0 32.86 16.43 16.43 0 0 0 0-32.86m-741.03 52.93a16.43 16.43 0 0 0 0 32.86 16.43 16.43 0 0 0 0-32.86m317.58 0a16.43 16.43 0 0 0 0 32.86 16.43 16.43 0 0 0 0-32.86m158.8 0a16.43 16.43 0 0 0 0 32.86 16.43 16.43 0 0 0 0-32.86m158.79 0a16.43 16.43 0 0 0 0 32.86 16.43 16.43 0 0 0 0-32.86m52.93 0a16.43 16.43 0 0 0 0 32.86 16.43 16.43 0 0 0 0-32.86m-582.24 52.93a16.43 16.43 0 0 0 0 32.86 16.43 16.43 0 0 0 0-32.86m52.93 0a16.43 16.43 0 0 0 0 32.86 16.43 16.43 0 0 0 0-32.86m264.66 0a16.43 16.43 0 0 0 0 32.86 16.43 16.43 0 0 0 0-32.86" fill="#FFFC00"/><path d="M519.13 180.79c27.04 0 54.42 5.88 79.08 16.94 40.83 18.31 74.18 52.87 90.69 94.6 9.45 23.89 9.73 51.4 9.51 76.72-.13 14.61-.82 29.2-1.66 43.78-.43 7.33-.89 14.65-1.35 21.98-.25 4.02-.5 8.04-.74 12.06-.15 2.59-1.05 6.09-.48 8.64 1.25 5.61 10.15 9.35 15.06 10.9 12.97 4.08 26.53 1.14 39.01-3.31 7.44-2.65 14.14-7.09 22.3-6.34 5.91.54 12.76 3.18 16.97 7.46 4.42 4.5 3.49 8.94-.31 13.25-7.22 8.19-19.14 12.85-29.22 16.17-11.04 3.63-22.24 6.86-32.53 12.39-10.14 5.45-19.5 13.29-23.5 24.42-4.65 12.94-.77 26.1 4.7 38.08 9.29 20.35 21.36 39.42 35.47 56.78 26.38 32.46 60.86 58.79 101.3 70.8 5.94 1.76 11.96 3.22 18.05 4.36 2.58.48 4.25-.11 3.34 2.64-.12.35-.36.68-.54.99-1.35 2.26-3.56 4.07-5.66 5.6-11.92 8.72-27.62 12.73-41.7 16.18-6.66 1.64-13.38 3.05-20.12 4.32-6.7 1.26-14.86 1.29-21.12 4.01-10.45 4.53-12.01 20.12-14.14 29.74-.83 3.76-1.69 7.51-2.69 11.23-.89 3.3-.62 4.99-4.14 5.04-6.04.1-12.12-1.5-18.02-2.59-13.89-2.56-27.98-3.93-42.11-3.59-15.44.37-31.21 2.15-45.56 8.12-13.73 5.72-26.01 14.35-38.1 22.88-21.13 14.91-42.59 29.7-68.27 35.39-12.87 2.85-26.18 3.15-39.31 2.73-14-.45-27.79-3.36-40.78-8.57-24.77-9.94-44.92-27.53-67.27-41.61-12.7-8-26.19-14.34-41.11-16.68-15.83-2.49-31.92-2.99-47.86-1.29-6.19.66-12.33 1.64-18.45 2.79-5.99 1.12-12.47 3.24-18.6 3-2.89-.12-2.92-.99-3.69-3.7-1.13-4.03-2.06-8.11-2.96-12.2-1.38-6.25-2.54-12.65-4.79-18.66-1.76-4.7-4.36-9.49-9.07-11.76-6.02-2.9-14.26-2.84-20.8-4.07-12.18-2.28-24.33-4.98-36.16-8.72-10.16-3.21-22.41-7.12-30.06-15.04-.73-.75-1.45-1.55-1.99-2.45-.18-.29-.43-.61-.53-.94-.83-2.55.16-2.2 2.65-2.66 11.77-2.16 23.31-5.49 34.41-9.95 20.32-8.14 39.02-19.98 55.57-34.27 24.28-20.95 44.38-47.03 59.37-75.35 5.12-9.68 10.62-20.27 12.35-31.08 4.35-27.14-17.99-42.5-40.51-50.69-11.96-4.35-24.29-7.33-35.45-13.67-5.09-2.89-14.98-8.66-14.21-15.87.58-5.48 7.36-9.18 11.89-10.88 3.07-1.15 6.44-1.9 9.74-1.72 3.97.22 7.37 2.32 10.99 3.8 13.15 5.39 27.86 9.23 42.14 7.01 7.14-1.11 14.54-3.82 19.69-9.08 1.24-1.27 1.7-1.8 1.98-3.34.51-2.84-.37-6.63-.53-9.47-.45-7.58-.94-15.16-1.41-22.74-1.79-28.91-3.52-58.05-1.37-86.99.92-12.41 2.54-24.93 6.16-36.87 3.6-11.86 9.63-23.12 16.09-33.65 11.91-19.4 27.38-36.53 45.81-49.93 27.01-19.65 59.62-30.92 92.76-34.08 10.55-1.01 21.19-.99 31.79-.99" fill="#fff"/></svg>